Coordinates
version=1
nRows=16
nColumns=29
inDegrees=yes

Units are S.I. units (second, meters, Newtons, ...)
Angles are in degrees.

endheader
time	pelvis_rz	pelvis_rx	pelvis_ry	pelvis_tx	pelvis_ty	pelvis_tz	r_hip_flexion	r_hip_adduction	r_hip_rotation	r_knee_angle	tp_r3	tp_tx	tp_ty	tp_tz	r_ankle_angle	r_subt_angle	r_mtp_angle	l_hip_flexion	l_hip_adduction	l_hip_rotation	l_knee_angle	ltp_r3	ltp_tx	ltp_ty	ltp_tz	l_ankle_angle	l_subt_angle	l_mtp_angle
      4.76600000	    -22.76458291	     -1.08892984	     97.00875222	     -0.05395347	     -0.02396212	      2.93459784	     -5.91566929	    -18.17934306	    -16.83094018	     -4.09986145	      4.41517580	      0.04914392	     -0.02253122	      0.00240000	    -29.65440899	    -11.02171833	      0.00000000	     74.78557221	    -40.78525299	    -19.83477687	    -90.31658557	     17.56783145	      0.02904708	     -0.02021046	     -0.00240000	     16.42458218	     19.34820573	      0.00000000
      4.80600000	    -23.50144209	      2.67729955	     93.08286850	     -0.03452439	     -0.01693585	      2.93086329	     -8.54403778	    -18.09323996	    -12.73399290	     -3.78941228	      4.11274577	      0.04918021	     -0.02254326	      0.00240000	    -29.45012356	    -11.72661977	      0.00000000	     74.42250364	    -47.76556829	    -19.77603353	    -90.22626078	     17.56752046	      0.02907788	     -0.02020745	     -0.00240000	     12.51766410	     19.40525574	      0.00000000
      4.84600000	    -24.06098520	      3.68792639	     92.41391590	     -0.02774640	     -0.01405017	      2.92889845	     -9.55596202	    -18.36880313	    -12.18771640	     -3.68192528	      4.00668113	      0.04919270	     -0.02254743	      0.00240000	    -29.40753372	    -11.81424512	      0.00000000	     74.25152360	    -49.17463685	    -19.75075917	    -90.25903026	     17.56763311	      0.02906671	     -0.02020854	     -0.00240000	     11.49554558	     19.33444472	      0.00000000
      4.88600000	    -24.71148530	      4.15312180	     92.42386363	     -0.02235023	     -0.01152221	      2.92688338	    -10.28226282	    -18.69296081	    -12.21982863	     -3.57814304	      3.90360859	      0.04920473	     -0.02255145	      0.00240000	    -29.37331260	    -12.03702416	      0.00000000	     74.19631959	    -49.55049941	    -19.72658839	    -90.36507590	     17.56799902	      0.02903053	     -0.02021208	     -0.00240000	     10.00542498	     19.20715386	      0.00000000
      4.92600000	    -25.24835734	      4.67147102	     92.54112531	     -0.01735496	     -0.00909837	      2.92524159	    -11.06896978	    -18.89500144	    -12.35997639	     -3.49496683	      3.82052567	      0.04921435	     -0.02255467	      0.00240000	    -29.34547611	    -12.25910285	      0.00000000	     73.61498208	    -49.67737359	    -19.71032593	    -90.99911985	     17.57023007	      0.02881345	     -0.02023370	     -0.00240000	      7.24562127	     18.98409611	      0.00000000
      4.96600000	    -25.57261585	      6.01881429	     92.66847231	     -0.01207182	     -0.00613222	      2.92476346	    -12.68641318	    -18.82194708	    -12.90511474	     -3.33514942	      3.65974251	      0.04923278	     -0.02256086	      0.00240000	    -29.32656034	    -12.33386225	      0.00000000	     71.80713502	    -49.72431167	    -19.69710553	    -91.91703064	     17.57358126	      0.02849683	     -0.02026641	     -0.00240000	      4.27831460	     18.54606772	      0.00000000
      5.00600000	    -25.29729162	      5.99094639	     92.60085055	     -0.00775595	     -0.00513862	      2.92347371	    -12.66607254	    -18.24142720	    -13.06931291	     -3.30375853	      3.62793901	      0.04923639	     -0.02256208	      0.00240000	    -29.30782742	    -12.47408208	      0.00000000	     70.62996027	    -49.72403284	    -19.70018776	    -92.81962592	     17.57699873	      0.02818280	     -0.02030012	     -0.00240000	      1.99126065	     18.02309206	      0.00000000
      5.04600000	    -24.85670994	      6.43441439	     92.55806152	     -0.00320584	     -0.00393538	      2.92303087	    -13.08521093	    -17.45369417	    -13.22469622	     -3.28300868	      3.60689835	      0.04923877	     -0.02256288	      0.00240000	    -29.29873165	    -12.63400072	      0.00000000	     68.75845549	    -49.70349319	    -19.71158092	    -93.69759074	     17.58042781	      0.02787459	     -0.02033446	     -0.00240000	     -3.48629775	     16.04823807	      0.00000000
      5.08600000	    -22.36830500	      5.57559363	     92.33793906	      0.00396322	     -0.00454817	      2.92171012	    -11.79148653	    -14.31893307	    -13.20337529	     -3.41789465	      3.74316496	      0.04922325	     -0.02255766	      0.00240000	    -29.31029348	    -13.06839141	      0.00000000	     65.13908238	    -49.34640368	    -19.76543401	    -93.93833958	     17.58138275	      0.02778964	     -0.02034412	     -0.00240000	    -10.04339497	     12.68543793	      0.00000000
      5.12600000	    -20.81173433	      5.20588733	     92.82285374	      0.00629423	     -0.00488925	      2.92165504	    -11.34644160	    -12.33200369	    -13.26697118	     -3.50680160	      3.83237919	      0.04921299	     -0.02255421	      0.00240000	    -29.34746954	    -13.48918566	      0.00000000	     62.81399634	    -48.28905374	    -19.80170083	    -93.08629036	     17.57803192	      0.02808943	     -0.02031042	     -0.00240000	    -12.03818612	     10.41317528	      0.00000000
      5.16600000	    -19.72892755	      4.51428701	     94.30166236	      0.00711417	     -0.00508138	      2.92145025	    -10.90621126	    -10.71980351	    -13.87400504	     -3.55084775	      3.87639118	      0.04920789	     -0.02255251	      0.00240000	    -29.38119022	    -14.07318557	      0.00000000	     60.52669895	    -45.76908150	    -19.83113398	    -91.26610840	     17.57119067	      0.02872165	     -0.02024305	     -0.00240000	    -17.22740837	      6.92151326	      0.00000000
      5.20600000	    -18.78029359	      3.52277241	     96.84232544	      0.00613423	     -0.00524083	      2.92141738	    -10.40399953	     -9.16954061	    -15.37949987	     -3.53541970	      3.86102649	      0.04920968	     -0.02255311	      0.00240000	    -29.41402997	    -14.55264776	      0.00000000	     57.38814984	    -41.35643303	    -19.86290890	    -87.82090671	     17.55986704	      0.02988846	     -0.02013368	     -0.00240000	    -17.43511874	      5.23324803	      0.00000000
      5.24600000	    -18.42951052	      2.52938325	     98.96928541	      0.00538970	     -0.00512842	      2.92108734	     -9.82249803	     -8.45026549	    -16.36507825	     -3.56791039	      3.89340856	      0.04920592	     -0.02255185	      0.00240000	    -29.41915655	    -14.94236598	      0.00000000	     54.76157710	    -37.25619436	    -19.87792002	    -84.18829291	     17.55115396	      0.03107793	     -0.02004895	     -0.00240000	    -14.22814821	      8.81792587	      0.00000000
      5.28600000	    -18.19326483	      1.73336243	    102.47796261	      0.00222108	     -0.00389592	      2.92022967	     -9.85862282	     -7.73543114	    -17.37891165	     -3.59006713	      3.91548367	      0.04920335	     -0.02255099	      0.00240000	    -29.41077765	    -15.73799607	      0.00000000	     46.29056090	    -28.30281485	    -19.89879547	    -74.06926254	     17.53676348	      0.03418763	     -0.02003052	     -0.00240000	    -11.96701680	     10.70376958	      0.00000000
      5.32600000	    -18.11486766	      1.96014452	    103.29219985	      0.00014739	     -0.00330788	      2.91923458	    -10.39291103	     -7.55416041	    -17.49663373	     -3.53438251	      3.85994884	      0.04920980	     -0.02255315	      0.00240000	    -29.37917980	    -15.86600288	      0.00000000	     40.61504234	    -24.18149363	    -19.90287694	    -67.59404635	     17.50308911	      0.03603953	     -0.02016642	     -0.00240000	    -14.09247784	      9.10116337	      0.00000000
      5.36600000	    -17.79632352	      2.46964206	    103.21407917	     -0.00206924	     -0.00323671	      2.91770168	    -10.99871029	     -7.28106167	    -17.28069270	     -3.44476541	      3.77020188	      0.04922015	     -0.02255662	      0.00240000	    -29.32384985	    -15.78170877	      0.00000000	     34.86009815	    -20.97360742	    -19.90198198	    -60.81183246	     17.41293015	      0.03788477	     -0.02037334	     -0.00240000	    -17.46782516	      6.89025734	      0.00000000
